<svg width="100%" height="100%" viewBox="0 0 192 142" fill="none" xmlns="http://www.w3.org/2000/svg">
<path d="M98.7109 41.144C98.7109 41.144 104.722 39.0198 105.196 38.8708C110.545 37.1893 116.015 35.9132 121.558 35.0535C134.808 32.9513 148.386 34.5806 160.751 39.7566C165.157 41.5543 169.276 43.9782 172.98 46.9522C192.474 62.8876 197.081 93.4103 185.168 115.068C184.486 116.331 183.713 117.543 182.857 118.697C170.573 134.828 152.499 142.314 132.193 141.985C120.525 141.797 109.196 138.661 98.7109 133.637V84.6548H138.851V103.569H120.793V119.457C125.723 121.511 131.078 122.356 136.405 121.918C145.162 121.135 155.063 118.517 163.442 106.978C172.585 94.3744 170.1 74.9038 159.039 64.2358C144.05 49.7975 121.889 54.5476 104.841 61.704C102.784 62.5767 100.741 63.4807 98.7109 64.4161V41.144Z" fill="#f6f3ed"/>
<path d="M88.0451 41.1433C88.0451 41.1433 82.9802 39.0818 82.5227 38.9329C77.9102 37.2269 73.1594 35.9157 68.3221 35.0137C56.5673 32.9208 44.0866 34.5904 32.9471 38.7996C13.7132 46.0815 1.17734 64.6506 0.0886296 84.8736C-0.574062 97.1877 2.45538 109.572 9.98955 119.362C17.0898 128.525 26.7698 136.105 37.9804 139.499C53.5852 144.202 77.4263 141.584 88.0451 133.229V110.184C88.0451 110.184 70.9098 123.799 53.3958 121.157C35.8818 118.516 26.5726 106.978 24.0796 97.5169C21.5866 88.056 20.8451 72.7398 37.9804 59.4929C55.1157 46.2461 82.5306 60.4414 88.0451 64.4154V41.1433Z" fill="#f6f3ed"/>
<path d="M54.9179 25.5374C62.0156 25.5374 67.7694 19.8207 67.7694 12.7687C67.7694 5.71675 62.0156 0 54.9179 0C47.8202 0 42.0664 5.71675 42.0664 12.7687C42.0664 19.8207 47.8202 25.5374 54.9179 25.5374Z" fill="#f6f3ed"/>
<path d="M136.785 25.5374C143.883 25.5374 149.637 19.8207 149.637 12.7687C149.637 5.71675 143.883 0 136.785 0C129.687 0 123.934 5.71675 123.934 12.7687C123.934 19.8207 129.687 25.5374 136.785 25.5374Z" fill="#f6f3ed"/>
</svg>
