<svg width="100%" height="100%" viewBox="0 0 200 200" fill="none" xmlns="http://www.w3.org/2000/svg">
<circle cx="100" cy="100" r="99.5" stroke="#F6F3ED"/>
<circle cx="100" cy="100" r="80.75" stroke="#F6F3ED"/>
<path d="M125.074 118.359C125.074 106.984 119.277 100.422 100.793 97.7969V65.3125C113.699 65.9687 118.512 72.3125 119.496 81.0625H122.996C122.121 69.6875 114.574 62.9062 100.793 62.25V54.7031H97.293V62.1406C83.9492 62.4687 73.9961 69.9062 73.9961 81.3906C73.9961 91.7812 83.5117 98.7812 97.293 100.531V135.531C82.5273 134.766 75.418 125.906 74.4336 113.437H70.9336C71.918 128.422 81.4336 137.828 97.293 138.594V146.797H100.793V138.703C117.09 138.266 125.074 129.078 125.074 118.359ZM77.4961 81.3906C77.4961 71.875 85.3711 65.5312 97.293 65.2031V97.25C84.9336 95.0625 77.4961 90.25 77.4961 81.3906ZM100.793 135.641V100.969C116.215 103.156 121.684 107.859 121.574 118.359C121.465 127.328 115.34 135.203 100.793 135.641Z" fill="#F6F3ED"/>
</svg>
