<svg width="67" height="67" viewBox="0 0 67 67" fill="none" xmlns="http://www.w3.org/2000/svg">
<path d="M64.2311 33.4997C64.2311 51.0207 50.2415 65.2114 33.0003 65.2114C15.7591 65.2114 1.76953 51.0207 1.76953 33.4997C1.76953 15.9788 15.7591 1.78809 33.0003 1.78809C50.2415 1.78809 64.2311 15.9788 64.2311 33.4997Z" stroke="#F6F3ED"/>
<ellipse cx="33.0006" cy="1.61058" rx="1.58654" ry="1.61058" fill="#F6F3ED"/>
<circle r="1.59861" transform="matrix(0.701769 -0.712404 0.701769 0.712404 10.7867 10.9502)" fill="#F6F3ED"/>
<ellipse cx="64.4135" cy="33.5002" rx="1.61058" ry="1.58654" transform="rotate(90 64.4135 33.5002)" fill="#F6F3ED"/>
<circle r="1.59861" transform="matrix(0.701769 0.712404 -0.701769 0.712404 55.2109 10.9515)" fill="#F6F3ED"/>
<ellipse cx="33.0006" cy="65.3899" rx="1.58654" ry="1.61058" fill="#F6F3ED"/>
<circle r="1.59861" transform="matrix(0.701769 -0.712404 0.701769 0.712404 55.2085 56.0508)" fill="#F6F3ED"/>
<ellipse cx="1.58534" cy="33.5002" rx="1.61058" ry="1.58654" transform="rotate(90 1.58534 33.5002)" fill="#F6F3ED"/>
<circle r="1.59861" transform="matrix(0.701769 0.712404 -0.701769 0.712404 10.7891 56.0502)" fill="#F6F3ED"/>
<line x1="33.3" y1="1.28809" x2="33.3" y2="65.7114" stroke="#F6F3ED" stroke-width="0.6"/>
<line y1="-0.3" x2="63.9442" y2="-0.3" transform="matrix(-0.701769 0.712404 -0.701769 -0.712404 55.4805 10.6084)" stroke="#F6F3ED" stroke-width="0.6"/>
<line x1="64.7305" y1="33.8" x2="1.58622" y2="33.8" stroke="#F6F3ED" stroke-width="0.6"/>
<line y1="-0.3" x2="63.6245" y2="-0.3" transform="matrix(-0.701769 -0.712404 0.701769 -0.712404 55.4805 56.1631)" stroke="#F6F3ED" stroke-width="0.6"/>
<line y1="-0.3" x2="45.2154" y2="-0.3" transform="matrix(-0.701769 0.712404 -0.701769 -0.712404 33 1.28809)" stroke="#F6F3ED" stroke-width="0.6"/>
<line x1="55.3711" y1="10.8615" x2="10.497" y2="10.8615" stroke="#F6F3ED" stroke-width="0.6"/>
<line y1="-0.3" x2="45.2154" y2="-0.3" transform="matrix(0.701769 -0.712404 0.701769 0.712404 33.3164 65.3896)" stroke="#F6F3ED" stroke-width="0.6"/>
<line x1="10.9414" y1="55.8172" x2="55.8155" y2="55.8172" stroke="#F6F3ED" stroke-width="0.6"/>
<line y1="-0.3" x2="44.9933" y2="-0.3" transform="matrix(0.698181 0.715921 -0.70534 0.708869 33 1.28809)" stroke="#F6F3ED" stroke-width="0.6"/>
<line y1="-0.3" x2="45.3269" y2="-0.3" transform="matrix(-0.00495005 0.999988 -0.999987 -0.00510122 55.3711 10.5615)" stroke="#F6F3ED" stroke-width="0.6"/>
<line y1="-0.3" x2="44.9933" y2="-0.3" transform="matrix(-0.698181 -0.715921 0.70534 -0.708869 33.3164 65.3896)" stroke="#F6F3ED" stroke-width="0.6"/>
<line y1="-0.5" x2="45.3269" y2="-0.5" transform="matrix(0.00495013 -0.999988 0.999987 0.0051013 10.9414 56.1172)" stroke="#F6F3ED"/>
</svg>
