<svg xmlns="http://www.w3.org/2000/svg" width="100%" height="100%" viewBox="0 0 861.94 181.16" fill="#f6f3ed"><title>CG Logo 2</title><g id="Layer_2" data-name="Layer 2"><g id="Layer_2-2" data-name="Layer 2"><path d="M125.12,52.49s7.62-2.71,8.22-2.9a140.67,140.67,0,0,1,20.74-4.87,91,91,0,0,1,49.68,6,62.35,62.35,0,0,1,15.5,9.18c24.71,20.33,30.55,59.27,15.45,86.9a38.43,38.43,0,0,1-2.93,4.63c-15.57,20.58-38.48,30.13-64.22,29.71-14.79-.24-29.15-4.24-42.44-10.65V108H176v24.13H153.11v20.27a42.19,42.19,0,0,0,19.79,3.14c11.1-1,23.65-4.34,34.27-19.06,11.59-16.08,8.44-40.92-5.58-54.53-19-18.42-47.09-12.36-68.7-3.23q-3.91,1.67-7.77,3.46Z"/><path d="M111.6,52.49s-6.42-2.63-7-2.82a109.48,109.48,0,0,0-18-5C71.7,42,55.88,44.13,41.76,49.5,17.38,58.79,1.49,82.48.11,108.28c-.84,15.71,3,31.51,12.55,44,9,11.69,21.27,21.36,35.48,25.69,19.78,6,50,2.66,63.46-8V140.57s-21.72,17.37-43.92,14-34-18.09-37.16-30.16-4.1-31.61,17.62-48.51,56.47,1.21,63.46,6.28Z"/><circle cx="69.61" cy="16.29" r="16.29"/><circle cx="173.38" cy="16.29" r="16.29"/><path d="M300,85.23c-15.4,0-21.5,12.9-21.5,27s6.1,27.1,21.5,27.1c13.3,0,18.4-8.7,19.2-17.4h11.9c-1.6,16.1-12.6,27.6-30.8,27.6-20.6,0-33.6-15.7-33.6-37.3s13-37.2,33.6-37.2c18.1,0,29.1,11.5,30.8,26.1h-11.9C317.85,93.93,313.15,85.23,300,85.23Z"/><path d="M360.45,103.83c-8.4,0-11.5,2.6-12,9.2h-10.2c.5-9.8,6.8-17.5,22.2-17.5,11.3,0,19.7,4.3,19.7,17.9v24.3c0,3.6.8,5.5,4.9,5.1v5a15.8,15.8,0,0,1-6.1,1.1c-5.6,0-8.2-2-9.2-7h-.2c-3.2,4.5-9,7.6-16.9,7.6-10.4,0-16.8-6-16.8-14.6,0-11.2,8.3-14.7,21.1-17.2,7.9-1.5,12.7-2.5,12.7-7.4C369.65,106.63,367.45,103.83,360.45,103.83Zm9.2,24.8v-7.7c-1.7,1.2-5.8,2.4-10.7,3.4-8.7,1.9-12.5,4.4-12.5,9.6,0,4.7,2.8,7.3,8.5,7.3C363.65,141.23,369.65,136.93,369.65,128.63Z"/><path d="M440.35,122.53c0,16.8-9.7,27-22.7,27-8,0-13-3.8-15.7-7.6h-.2v23.5h-10.6V96.93h10.6v6h.2c2.7-3.6,7.7-7.4,15.7-7.4C430.65,95.53,440.35,105.73,440.35,122.53Zm-10.6,0c0-10-4.9-18.4-14.1-18.4-8.5,0-13.8,7-13.8,18.4s5.3,18.4,13.8,18.4C424.85,140.93,429.75,132.53,429.75,122.53Z"/><path d="M448,82.73c0-3.6,3-5.5,5.9-5.5,3.1,0,6,1.9,6,5.5s-2.9,5.6-6,5.6A5.65,5.65,0,0,1,448,82.73Zm11.2,14.2V148h-10.5V96.93Z"/><path d="M484.65,105.53v27.7c0,5.8,2.8,6.5,9.6,6.1v8.6a30.44,30.44,0,0,1-7.2.8c-8.4,0-13-3.8-13-14.6v-28.6h-7.4v-8.6H474V80.83h10.61v16.1h9.6v8.6Z"/><path d="M523.84,103.83c-8.4,0-11.5,2.6-12,9.2h-10.2c.5-9.8,6.8-17.5,22.2-17.5,11.3,0,19.71,4.3,19.71,17.9v24.3c0,3.6.8,5.5,4.9,5.1v5a15.8,15.8,0,0,1-6.1,1.1c-5.6,0-8.21-2-9.21-7h-.2c-3.2,4.5-9,7.6-16.9,7.6-10.4,0-16.8-6-16.8-14.6,0-11.2,8.3-14.7,21.1-17.2,7.9-1.5,12.7-2.5,12.7-7.4C533,106.63,530.84,103.83,523.84,103.83Zm9.2,24.8v-7.7c-1.7,1.2-5.8,2.4-10.7,3.4-8.7,1.9-12.5,4.4-12.5,9.6,0,4.7,2.8,7.3,8.5,7.3C527,141.23,533,136.93,533,128.63Z"/><path d="M565.34,76.53V148h-10.6V76.53Z"/><path d="M626.44,85.23c-15.3,0-21.6,13.6-21.6,27s4.9,27.1,21.2,27.1c11.3,0,20.3-7.8,20.4-19.2h-20.2v-9.6h32.3V148h-8.2l-2.6-9.8h-.2c-4.8,7.2-11.5,11.3-22.3,11.3-20.7,0-32.3-15.7-32.3-37.3s13-37.2,33.6-37.2c18.6,0,28.6,10.1,30.8,23.8h-11.9C643.64,90.33,637,85.23,626.44,85.23Z"/><path d="M697.64,96v9.9h-.2c-10.1-1.7-18.2,5.1-18.2,16V148h-10.5V96.93h10.5v9.6h.2c2.7-6.4,6.9-10.8,13.6-10.8A32.3,32.3,0,0,1,697.64,96Z"/><path d="M725.64,149.53c-16,0-25.7-11.1-25.7-27s9.7-27,25.7-27,25.7,11.1,25.7,27S741.64,149.53,725.64,149.53Zm0-8.6c10,0,15.2-7.9,15.2-18.4s-5.2-18.4-15.2-18.4-15.2,7.8-15.2,18.4S715.64,140.93,725.64,140.93Z"/><path d="M802.74,96.93V148h-10.5v-6.6H792c-2.7,4-8,8-16.8,8-9.5,0-17-5.5-17-17.2V96.93h10.6v32.3c0,6.9,2.9,11.3,10.1,11.3,8.1,0,13.3-4.9,13.3-12.5V96.93Z"/><path d="M861.94,122.53c0,16.8-9.7,27-22.7,27-8,0-13-3.8-15.7-7.6h-.2v23.5h-10.6V96.93h10.6v6h.2c2.7-3.6,7.7-7.4,15.7-7.4C852.24,95.53,861.94,105.73,861.94,122.53Zm-10.6,0c0-10-4.9-18.4-14.1-18.4-8.5,0-13.8,7-13.8,18.4s5.3,18.4,13.8,18.4C846.44,140.93,851.34,132.53,851.34,122.53Z"/></g></g></svg>