<svg width="100%" height="100%" viewBox="0 0 64 64" fill="none" xmlns="http://www.w3.org/2000/svg">
<circle cx="32" cy="32" r="31.5" stroke="#F6F3ED"/>
<path d="M51.3602 18.8189C51.2954 18.697 51.1441 18.6507 51.0221 18.7155L49.0355 19.7717C48.9135 19.8365 48.8673 19.9879 48.9321 20.1098C48.9969 20.2317 49.1483 20.278 49.2702 20.2132L51.0361 19.2744L51.975 21.0403C52.0398 21.1622 52.1912 21.2085 52.3131 21.1437C52.435 21.0789 52.4813 20.9275 52.4164 20.8056L51.3602 18.8189ZM42.368 48.4764L51.3786 19.0094L50.9004 18.8632L41.8898 48.3302L42.368 48.4764Z" fill="#F6F3ED"/>
<path d="M22.3485 48.2778C22.2837 48.3997 22.1323 48.446 22.0104 48.3812L20.0237 47.3249C19.9018 47.2601 19.8555 47.1088 19.9203 46.9868C19.9852 46.8649 20.1365 46.8187 20.2584 46.8835L22.0244 47.8223L22.9632 46.0564C23.0281 45.9345 23.1794 45.8882 23.3013 45.953C23.4233 46.0178 23.4695 46.1692 23.4047 46.2911L22.3485 48.2778ZM13.3563 18.6203L22.3668 48.0873L21.8887 48.2335L12.8781 18.7665L13.3563 18.6203Z" fill="#F6F3ED"/>
<path fill-rule="evenodd" clip-rule="evenodd" d="M38.607 49.3777H25.8802L25.3692 47.6731H39.1204L38.607 49.3777ZM39.3405 46.9425H25.1502L23.1059 40.1234H41.3944L39.3405 46.9425ZM41.6144 39.3929H22.8868L20.8426 32.5741H31.0498C31.7546 35.1727 32.3399 37.8518 32.3399 37.8518H32.4362C32.4362 37.8518 33.056 35.1727 33.7423 32.5741H43.6682L41.6144 39.3929ZM30.8476 31.8435H20.6235L18.5793 25.0247H28.8562L30.6549 31.1763C30.7195 31.3948 30.7839 31.6178 30.8476 31.8435ZM35.8832 25.0247L34.1212 31.1763C34.0602 31.3948 33.9989 31.6178 33.9377 31.8435H43.8883L45.9421 25.0247H35.8832ZM46.1622 24.2941H36.0925L38.0455 17.4753H48.216L46.1622 24.2941ZM28.6426 24.2941H18.3603L16.316 17.4753H26.6489L28.6426 24.2941ZM15.5859 15.04L16.097 16.7447H26.4352L25.9368 15.04H15.5859ZM48.436 16.7447H38.2548L38.743 15.04H48.9495L48.436 16.7447Z" fill="#F6F3ED"/>
<path d="M37.4349 52.6572C37.5326 52.5596 37.5326 52.4013 37.4349 52.3037L35.8439 50.7127C35.7463 50.6151 35.588 50.6151 35.4904 50.7127C35.3927 50.8103 35.3927 50.9686 35.4904 51.0663L36.9046 52.4805L35.4904 53.8947C35.3927 53.9923 35.3927 54.1506 35.4904 54.2482C35.588 54.3459 35.7463 54.3459 35.8439 54.2482L37.4349 52.6572ZM27.2734 52.7305L37.2581 52.7305L37.2581 52.2305L27.2734 52.2305L27.2734 52.7305Z" fill="#F6F3ED"/>
</svg>
