<svg width="85" height="65" viewBox="0 0 85 65" fill="none" xmlns="http://www.w3.org/2000/svg">
<circle cx="41.0781" cy="32.0312" r="31.5312" stroke="#F6F3ED"/>
<circle cx="52.9297" cy="16.0156" r="1.28125" fill="#F6F3ED"/>
<circle cx="22.1797" cy="30.75" r="1.28125" fill="#F6F3ED"/>
<circle cx="31.7891" cy="44.2031" r="1.28125" fill="#F6F3ED"/>
<circle cx="65.4219" cy="33.9531" r="1.28125" fill="#F6F3ED"/>
<path d="M1.50315 56.1108C1.53412 56.3852 1.78167 56.5825 2.05607 56.5515L6.52769 56.0469C6.80209 56.016 6.99943 55.7684 6.96846 55.494C6.9375 55.2196 6.68995 55.0223 6.41555 55.0532L2.44078 55.5018L1.99223 51.527C1.96126 51.2526 1.71372 51.0553 1.43932 51.0862C1.16491 51.1172 0.967572 51.3647 0.998537 51.6391L1.50315 56.1108ZM22.3594 30.5157L22.7718 30.2329L22.3897 29.6756L21.9685 30.204L22.3594 30.5157ZM31.7943 44.277L31.3819 44.5597L31.7758 45.1342L32.1941 44.5772L31.7943 44.277ZM53.0228 16.0105L53.4355 15.7283L53.0418 15.1525L52.623 15.7102L53.0228 16.0105ZM65.3129 33.987L64.9002 34.2692L65.2627 34.7995L65.6878 34.3178L65.3129 33.987ZM84.499 12.7814C84.4818 12.5058 84.2445 12.2963 83.9689 12.3135L79.4776 12.5937C79.202 12.6109 78.9925 12.8483 79.0097 13.1239C79.0269 13.3995 79.2643 13.609 79.5399 13.5918L83.5321 13.3427L83.7812 17.3349C83.7984 17.6105 84.0358 17.82 84.3114 17.8028C84.587 17.7856 84.7965 17.5482 84.7793 17.2726L84.499 12.7814ZM2.39097 56.3664L22.7504 30.8273L21.9685 30.204L1.60903 55.743L2.39097 56.3664ZM21.9471 30.7984L31.3819 44.5597L32.2067 43.9942L22.7718 30.2329L21.9471 30.7984ZM32.1941 44.5772L53.4226 16.3107L52.623 15.7102L31.3945 43.9767L32.1941 44.5772ZM52.61 16.2927L64.9002 34.2692L65.7257 33.7048L53.4355 15.7283L52.61 16.2927ZM65.6878 34.3178L84.3749 13.1433L83.6251 12.4817L64.938 33.6561L65.6878 34.3178Z" fill="#F6F3ED"/>
</svg>
